<?xml version="1.0" encoding="UTF-8"?><svg xmlns="http://www.w3.org/2000/svg" xmlns:xlink="http://www.w3.org/1999/xlink" fill-opacity="1" color-rendering="auto" color-interpolation="auto" text-rendering="auto" stroke="black" stroke-linecap="square" width="434" stroke-miterlimit="10" shape-rendering="auto" stroke-opacity="1" fill="black" stroke-dasharray="none" font-weight="normal" stroke-width="1" height="1216" font-family="'Dialog'" font-style="normal" stroke-linejoin="miter" font-size="12px" stroke-dashoffset="0" image-rendering="auto">
  <!--Generated by ySVG 2.6-->
  <defs id="genericDefs"/>
  <g>
    <defs id="defs1">
      <linearGradient x1="440" gradientUnits="userSpaceOnUse" x2="520" y1="100" y2="140" id="linearGradient1" spreadMethod="reflect">
        <stop stop-opacity="1" stop-color="rgb(232,238,247)" offset="0%"/>
        <stop stop-opacity="1" stop-color="rgb(183,201,227)" offset="100%"/>
      </linearGradient>
      <linearGradient x1="402" gradientUnits="userSpaceOnUse" x2="558" y1="170" y2="228" id="linearGradient2" spreadMethod="reflect">
        <stop stop-opacity="1" stop-color="rgb(232,238,247)" offset="0%"/>
        <stop stop-opacity="1" stop-color="rgb(183,201,227)" offset="100%"/>
      </linearGradient>
      <linearGradient x1="592.5" gradientUnits="userSpaceOnUse" x2="672.5" y1="250" y2="290" id="linearGradient3" spreadMethod="reflect">
        <stop stop-opacity="1" stop-color="rgb(232,238,247)" offset="0%"/>
        <stop stop-opacity="1" stop-color="rgb(183,201,227)" offset="100%"/>
      </linearGradient>
      <linearGradient x1="397.5" gradientUnits="userSpaceOnUse" x2="562.5" y1="250" y2="322" id="linearGradient4" spreadMethod="reflect">
        <stop stop-opacity="1" stop-color="rgb(232,238,247)" offset="0%"/>
        <stop stop-opacity="1" stop-color="rgb(183,201,227)" offset="100%"/>
      </linearGradient>
      <linearGradient x1="269" gradientUnits="userSpaceOnUse" x2="391" y1="320" y2="360" id="linearGradient5" spreadMethod="reflect">
        <stop stop-opacity="1" stop-color="rgb(232,238,247)" offset="0%"/>
        <stop stop-opacity="1" stop-color="rgb(183,201,227)" offset="100%"/>
      </linearGradient>
      <linearGradient x1="388.5" gradientUnits="userSpaceOnUse" x2="571.5" y1="390" y2="430" id="linearGradient6" spreadMethod="reflect">
        <stop stop-opacity="1" stop-color="rgb(232,238,247)" offset="0%"/>
        <stop stop-opacity="1" stop-color="rgb(183,201,227)" offset="100%"/>
      </linearGradient>
      <linearGradient x1="592.5" gradientUnits="userSpaceOnUse" x2="672.5" y1="320" y2="360" id="linearGradient7" spreadMethod="reflect">
        <stop stop-opacity="1" stop-color="rgb(232,238,247)" offset="0%"/>
        <stop stop-opacity="1" stop-color="rgb(183,201,227)" offset="100%"/>
      </linearGradient>
      <linearGradient x1="421" gradientUnits="userSpaceOnUse" x2="539" y1="460" y2="500" id="linearGradient8" spreadMethod="reflect">
        <stop stop-opacity="1" stop-color="rgb(232,238,247)" offset="0%"/>
        <stop stop-opacity="1" stop-color="rgb(183,201,227)" offset="100%"/>
      </linearGradient>
      <linearGradient x1="411.15" gradientUnits="userSpaceOnUse" x2="548.85" y1="530" y2="570" id="linearGradient9" spreadMethod="reflect">
        <stop stop-opacity="1" stop-color="rgb(232,238,247)" offset="0%"/>
        <stop stop-opacity="1" stop-color="rgb(183,201,227)" offset="100%"/>
      </linearGradient>
      <linearGradient x1="397.5" gradientUnits="userSpaceOnUse" x2="562.5" y1="600" y2="640" id="linearGradient10" spreadMethod="reflect">
        <stop stop-opacity="1" stop-color="rgb(232,238,247)" offset="0%"/>
        <stop stop-opacity="1" stop-color="rgb(183,201,227)" offset="100%"/>
      </linearGradient>
      <linearGradient x1="411.15" gradientUnits="userSpaceOnUse" x2="548.85" y1="670" y2="710" id="linearGradient11" spreadMethod="reflect">
        <stop stop-opacity="1" stop-color="rgb(232,238,247)" offset="0%"/>
        <stop stop-opacity="1" stop-color="rgb(183,201,227)" offset="100%"/>
      </linearGradient>
      <linearGradient x1="388.5" gradientUnits="userSpaceOnUse" x2="571.5" y1="740" y2="780" id="linearGradient12" spreadMethod="reflect">
        <stop stop-opacity="1" stop-color="rgb(232,238,247)" offset="0%"/>
        <stop stop-opacity="1" stop-color="rgb(183,201,227)" offset="100%"/>
      </linearGradient>
      <linearGradient x1="380" gradientUnits="userSpaceOnUse" x2="580" y1="810" y2="866" id="linearGradient13" spreadMethod="reflect">
        <stop stop-opacity="1" stop-color="rgb(232,238,247)" offset="0%"/>
        <stop stop-opacity="1" stop-color="rgb(183,201,227)" offset="100%"/>
      </linearGradient>
      <linearGradient x1="380" gradientUnits="userSpaceOnUse" x2="580" y1="896" y2="936" id="linearGradient14" spreadMethod="reflect">
        <stop stop-opacity="1" stop-color="rgb(232,238,247)" offset="0%"/>
        <stop stop-opacity="1" stop-color="rgb(183,201,227)" offset="100%"/>
      </linearGradient>
      <linearGradient x1="388.5" gradientUnits="userSpaceOnUse" x2="571.5" y1="966" y2="1006" id="linearGradient15" spreadMethod="reflect">
        <stop stop-opacity="1" stop-color="rgb(232,238,247)" offset="0%"/>
        <stop stop-opacity="1" stop-color="rgb(183,201,227)" offset="100%"/>
      </linearGradient>
      <linearGradient x1="362" gradientUnits="userSpaceOnUse" x2="598" y1="1036" y2="1076" id="linearGradient16" spreadMethod="reflect">
        <stop stop-opacity="1" stop-color="rgb(232,238,247)" offset="0%"/>
        <stop stop-opacity="1" stop-color="rgb(183,201,227)" offset="100%"/>
      </linearGradient>
      <linearGradient x1="425.575" gradientUnits="userSpaceOnUse" x2="534.425" y1="1106" y2="1146" id="linearGradient17" spreadMethod="reflect">
        <stop stop-opacity="1" stop-color="rgb(232,238,247)" offset="0%"/>
        <stop stop-opacity="1" stop-color="rgb(183,201,227)" offset="100%"/>
      </linearGradient>
      <linearGradient x1="440" gradientUnits="userSpaceOnUse" x2="520" y1="1176" y2="1216" id="linearGradient18" spreadMethod="reflect">
        <stop stop-opacity="1" stop-color="rgb(232,238,247)" offset="0%"/>
        <stop stop-opacity="1" stop-color="rgb(183,201,227)" offset="100%"/>
      </linearGradient>
      <linearGradient x1="440" gradientUnits="userSpaceOnUse" x2="520" y1="1246" y2="1286" id="linearGradient19" spreadMethod="reflect">
        <stop stop-opacity="1" stop-color="rgb(232,238,247)" offset="0%"/>
        <stop stop-opacity="1" stop-color="rgb(183,201,227)" offset="100%"/>
      </linearGradient>
      <clipPath clipPathUnits="userSpaceOnUse" id="clipPath1">
        <path d="M0 0 L434 0 L434 1216 L0 1216 L0 0 Z"/>
      </clipPath>
      <clipPath clipPathUnits="userSpaceOnUse" id="clipPath2">
        <path d="M254 85 L688 85 L688 1301 L254 1301 L254 85 Z"/>
      </clipPath>
    </defs>
    <g fill="url(#linearGradient1)" text-rendering="geometricPrecision" shape-rendering="geometricPrecision" transform="matrix(1,0,0,1,-254,-85)" stroke="url(#linearGradient1)">
      <circle r="20" clip-path="url(#clipPath2)" cx="480" cy="120" stroke="none"/>
    </g>
    <g text-rendering="geometricPrecision" stroke-miterlimit="1.45" stroke-width="2" shape-rendering="geometricPrecision" transform="matrix(1,0,0,1,-254,-85)" stroke-linecap="butt">
      <circle fill="none" r="20" clip-path="url(#clipPath2)" cx="480" cy="120"/>
      <text x="476.6631" y="124.7139" clip-path="url(#clipPath2)" font-family="sans-serif" stroke="none" font-weight="bold" stroke-width="1" xml:space="preserve">1</text>
    </g>
    <g fill="url(#linearGradient2)" text-rendering="geometricPrecision" shape-rendering="geometricPrecision" transform="matrix(1,0,0,1,-254,-85)" stroke="url(#linearGradient2)">
      <path d="M480 170 L558 199 L480 228 L402 199 Z" stroke="none" clip-path="url(#clipPath2)"/>
    </g>
    <g text-rendering="geometricPrecision" stroke-miterlimit="1.45" stroke-width="2" shape-rendering="geometricPrecision" transform="matrix(1,0,0,1,-254,-85)" stroke-linecap="butt">
      <path fill="none" d="M480 170 L558 199 L480 228 L402 199 Z" clip-path="url(#clipPath2)"/>
      <text x="429.6416" y="203.7139" clip-path="url(#clipPath2)" font-family="sans-serif" stroke="none" font-weight="bold" stroke-width="1" xml:space="preserve">vec.getSize() == 0</text>
    </g>
    <g fill="url(#linearGradient3)" text-rendering="geometricPrecision" shape-rendering="geometricPrecision" transform="matrix(1,0,0,1,-254,-85)" stroke="url(#linearGradient3)">
      <rect x="592.5" width="80" height="40" y="250" clip-path="url(#clipPath2)" stroke="none"/>
    </g>
    <g text-rendering="geometricPrecision" stroke-miterlimit="1.45" stroke-width="2" shape-rendering="geometricPrecision" transform="matrix(1,0,0,1,-254,-85)" stroke-linecap="butt">
      <rect fill="none" x="592.5" width="80" height="40" y="250" clip-path="url(#clipPath2)"/>
      <path fill="none" d="M602.5 250 L602.5 290 M662.5 250 L662.5 290 M602.5 250 Z" clip-path="url(#clipPath2)"/>
      <text x="603.4961" y="274.7139" clip-path="url(#clipPath2)" font-family="sans-serif" stroke="none" font-weight="bold" stroke-width="1" xml:space="preserve">vec.print()</text>
    </g>
    <g fill="url(#linearGradient4)" text-rendering="geometricPrecision" shape-rendering="geometricPrecision" transform="matrix(1,0,0,1,-254,-85)" stroke="url(#linearGradient4)">
      <path d="M480 250 L562.5 286 L480 322 L397.5 286 Z" stroke="none" clip-path="url(#clipPath2)"/>
    </g>
    <g text-rendering="geometricPrecision" stroke-miterlimit="1.45" stroke-width="2" shape-rendering="geometricPrecision" transform="matrix(1,0,0,1,-254,-85)" stroke-linecap="butt">
      <path fill="none" d="M480 250 L562.5 286 L480 322 L397.5 286 Z" clip-path="url(#clipPath2)"/>
      <text x="407.2881" y="290.7139" clip-path="url(#clipPath2)" font-family="sans-serif" stroke="none" font-weight="bold" stroke-width="1" xml:space="preserve">vec[vec.getSize() - 1] != ' '</text>
    </g>
    <g fill="url(#linearGradient5)" text-rendering="geometricPrecision" shape-rendering="geometricPrecision" transform="matrix(1,0,0,1,-254,-85)" stroke="url(#linearGradient5)">
      <rect x="269" width="122" height="40" y="320" clip-path="url(#clipPath2)" stroke="none"/>
    </g>
    <g text-rendering="geometricPrecision" stroke-miterlimit="1.45" stroke-width="2" shape-rendering="geometricPrecision" transform="matrix(1,0,0,1,-254,-85)" stroke-linecap="butt">
      <rect fill="none" x="269" width="122" height="40" y="320" clip-path="url(#clipPath2)"/>
      <path fill="none" d="M279 320 L279 360 M381 320 L381 360 M279 320 Z" clip-path="url(#clipPath2)"/>
      <text x="281.1299" y="344.7139" clip-path="url(#clipPath2)" font-family="sans-serif" stroke="none" font-weight="bold" stroke-width="1" xml:space="preserve">vec.pushBack(' ')</text>
    </g>
    <g fill="url(#linearGradient6)" text-rendering="geometricPrecision" shape-rendering="geometricPrecision" transform="matrix(1,0,0,1,-254,-85)" stroke="url(#linearGradient6)">
      <rect x="388.5" width="183" height="40" y="390" clip-path="url(#clipPath2)" stroke="none"/>
    </g>
    <g text-rendering="geometricPrecision" stroke-miterlimit="1.45" stroke-width="2" shape-rendering="geometricPrecision" transform="matrix(1,0,0,1,-254,-85)" stroke-linecap="butt">
      <rect fill="none" x="388.5" width="183" height="40" y="390" clip-path="url(#clipPath2)"/>
      <path fill="none" d="M398.5 390 L398.5 430 M561.5 390 L561.5 430 M398.5 390 Z" clip-path="url(#clipPath2)"/>
      <text x="399.6533" y="414.7139" clip-path="url(#clipPath2)" font-family="sans-serif" stroke="none" font-weight="bold" stroke-width="1" xml:space="preserve">vec.getLastWord(last_word)</text>
    </g>
    <g fill="url(#linearGradient7)" text-rendering="geometricPrecision" shape-rendering="geometricPrecision" transform="matrix(1,0,0,1,-254,-85)" stroke="url(#linearGradient7)">
      <rect x="592.5" y="320" clip-path="url(#clipPath2)" width="80" rx="20" ry="20" height="40" stroke="none"/>
    </g>
    <g text-rendering="geometricPrecision" stroke-miterlimit="1.45" stroke-width="2" shape-rendering="geometricPrecision" transform="matrix(1,0,0,1,-254,-85)" stroke-linecap="butt">
      <rect x="592.5" y="320" clip-path="url(#clipPath2)" fill="none" width="80" rx="20" ry="20" height="40"/>
      <text x="614.5234" y="344.7139" clip-path="url(#clipPath2)" font-family="sans-serif" stroke="none" font-weight="bold" stroke-width="1" xml:space="preserve">Конец</text>
    </g>
    <g fill="url(#linearGradient8)" text-rendering="geometricPrecision" shape-rendering="geometricPrecision" transform="matrix(1,0,0,1,-254,-85)" stroke="url(#linearGradient8)">
      <rect x="421" width="118" height="40" y="460" clip-path="url(#clipPath2)" stroke="none"/>
    </g>
    <g text-rendering="geometricPrecision" stroke-miterlimit="1.45" stroke-width="2" shape-rendering="geometricPrecision" transform="matrix(1,0,0,1,-254,-85)" stroke-linecap="butt">
      <rect fill="none" x="421" width="118" height="40" y="460" clip-path="url(#clipPath2)"/>
      <path fill="none" d="M431 460 L431 500 M529 460 L529 500 M431 460 Z" clip-path="url(#clipPath2)"/>
      <text x="434.6426" y="484.7139" clip-path="url(#clipPath2)" font-family="sans-serif" stroke="none" font-weight="bold" stroke-width="1" xml:space="preserve">help_vec.clear()</text>
    </g>
    <g fill="url(#linearGradient9)" text-rendering="geometricPrecision" shape-rendering="geometricPrecision" transform="matrix(1,0,0,1,-254,-85)" stroke="url(#linearGradient9)">
      <rect x="411.15" width="137.7" height="40" y="530" clip-path="url(#clipPath2)" stroke="none"/>
    </g>
    <g text-rendering="geometricPrecision" stroke-miterlimit="1.45" stroke-width="2" shape-rendering="geometricPrecision" transform="matrix(1,0,0,1,-254,-85)" stroke-linecap="butt">
      <rect fill="none" x="411.15" width="137.7" height="40" y="530" clip-path="url(#clipPath2)"/>
      <path fill="none" d="M421.15 530 L421.15 570 M538.85 530 L538.85 570 M421.15 530 Z" clip-path="url(#clipPath2)"/>
      <text x="424.6406" y="554.7139" clip-path="url(#clipPath2)" font-family="sans-serif" stroke="none" font-weight="bold" stroke-width="1" xml:space="preserve">vec.copy(help_vec)</text>
    </g>
    <g fill="url(#linearGradient10)" text-rendering="geometricPrecision" shape-rendering="geometricPrecision" transform="matrix(1,0,0,1,-254,-85)" stroke="url(#linearGradient10)">
      <rect x="397.5" width="165" height="40" y="600" clip-path="url(#clipPath2)" stroke="none"/>
    </g>
    <g text-rendering="geometricPrecision" stroke-miterlimit="1.45" stroke-width="2" shape-rendering="geometricPrecision" transform="matrix(1,0,0,1,-254,-85)" stroke-linecap="butt">
      <rect fill="none" x="397.5" width="165" height="40" y="600" clip-path="url(#clipPath2)"/>
      <path fill="none" d="M407.5 600 L407.5 640 M552.5 600 L552.5 640 M407.5 600 Z" clip-path="url(#clipPath2)"/>
      <text x="427.3125" y="617.3633" clip-path="url(#clipPath2)" font-family="sans-serif" stroke="none" font-weight="bold" stroke-width="1" xml:space="preserve">help_vec.popBack</text>
      <text x="411.1523" y="632.0645" clip-path="url(#clipPath2)" font-family="sans-serif" stroke="none" font-weight="bold" stroke-width="1" xml:space="preserve">(last_word.getSize() + 1)</text>
    </g>
    <g fill="url(#linearGradient11)" text-rendering="geometricPrecision" shape-rendering="geometricPrecision" transform="matrix(1,0,0,1,-254,-85)" stroke="url(#linearGradient11)">
      <path d="M421.15 670 L538.85 670 L548.85 680 L548.85 710 L411.15 710 L411.15 680 Z" stroke="none" clip-path="url(#clipPath2)"/>
    </g>
    <g text-rendering="geometricPrecision" stroke-miterlimit="1.45" stroke-width="2" shape-rendering="geometricPrecision" transform="matrix(1,0,0,1,-254,-85)" stroke-linecap="butt">
      <path fill="none" d="M421.15 670 L538.85 670 L548.85 680 L548.85 710 L411.15 710 L411.15 680 Z" clip-path="url(#clipPath2)"/>
      <text x="459.1143" y="687.3633" clip-path="url(#clipPath2)" font-family="sans-serif" stroke="none" font-weight="bold" stroke-width="1" xml:space="preserve">Цикл B</text>
      <text x="415.4766" y="702.0645" clip-path="url(#clipPath2)" font-family="sans-serif" stroke="none" font-weight="bold" stroke-width="1" xml:space="preserve">(help_vec.getSize() &gt; 1</text>
    </g>
    <g fill="url(#linearGradient12)" text-rendering="geometricPrecision" shape-rendering="geometricPrecision" transform="matrix(1,0,0,1,-254,-85)" stroke="url(#linearGradient12)">
      <rect x="388.5" width="183" height="40" y="740" clip-path="url(#clipPath2)" stroke="none"/>
    </g>
    <g text-rendering="geometricPrecision" stroke-miterlimit="1.45" stroke-width="2" shape-rendering="geometricPrecision" transform="matrix(1,0,0,1,-254,-85)" stroke-linecap="butt">
      <rect fill="none" x="388.5" width="183" height="40" y="740" clip-path="url(#clipPath2)"/>
      <path fill="none" d="M398.5 740 L398.5 780 M561.5 740 L561.5 780 M398.5 740 Z" clip-path="url(#clipPath2)"/>
      <text x="397.6582" y="764.7139" clip-path="url(#clipPath2)" font-family="sans-serif" stroke="none" font-weight="bold" stroke-width="1" xml:space="preserve">help_vec.getLastWord(word)</text>
    </g>
    <g fill="url(#linearGradient13)" text-rendering="geometricPrecision" shape-rendering="geometricPrecision" transform="matrix(1,0,0,1,-254,-85)" stroke="url(#linearGradient13)">
      <path d="M480 810 L580 838 L480 866 L380 838 Z" stroke="none" clip-path="url(#clipPath2)"/>
    </g>
    <g text-rendering="geometricPrecision" stroke-miterlimit="1.45" stroke-width="2" shape-rendering="geometricPrecision" transform="matrix(1,0,0,1,-254,-85)" stroke-linecap="butt">
      <path fill="none" d="M480 810 L580 838 L480 866 L380 838 Z" clip-path="url(#clipPath2)"/>
      <text x="404.6631" y="842.7139" clip-path="url(#clipPath2)" font-family="sans-serif" stroke="none" font-weight="bold" stroke-width="1" xml:space="preserve">!(last_word.isEqual(word))</text>
    </g>
    <g fill="url(#linearGradient14)" text-rendering="geometricPrecision" shape-rendering="geometricPrecision" transform="matrix(1,0,0,1,-254,-85)" stroke="url(#linearGradient14)">
      <rect x="380" width="200" height="40" y="896" clip-path="url(#clipPath2)" stroke="none"/>
    </g>
    <g text-rendering="geometricPrecision" stroke-miterlimit="1.45" stroke-width="2" shape-rendering="geometricPrecision" transform="matrix(1,0,0,1,-254,-85)" stroke-linecap="butt">
      <rect fill="none" x="380" width="200" height="40" y="896" clip-path="url(#clipPath2)"/>
      <path fill="none" d="M390 896 L390 936 M570 896 L570 936 M390 896 Z" clip-path="url(#clipPath2)"/>
      <text x="389.3174" y="920.7139" clip-path="url(#clipPath2)" font-family="sans-serif" stroke="none" font-weight="bold" stroke-width="1" xml:space="preserve">no_last_words.pushBack(word)</text>
    </g>
    <g fill="url(#linearGradient15)" text-rendering="geometricPrecision" shape-rendering="geometricPrecision" transform="matrix(1,0,0,1,-254,-85)" stroke="url(#linearGradient15)">
      <rect x="388.5" width="183" height="40" y="966" clip-path="url(#clipPath2)" stroke="none"/>
    </g>
    <g text-rendering="geometricPrecision" stroke-miterlimit="1.45" stroke-width="2" shape-rendering="geometricPrecision" transform="matrix(1,0,0,1,-254,-85)" stroke-linecap="butt">
      <rect fill="none" x="388.5" width="183" height="40" y="966" clip-path="url(#clipPath2)"/>
      <path fill="none" d="M398.5 966 L398.5 1006 M561.5 966 L561.5 1006 M398.5 966 Z" clip-path="url(#clipPath2)"/>
      <text x="399.1289" y="990.7139" clip-path="url(#clipPath2)" font-family="sans-serif" stroke="none" font-weight="bold" stroke-width="1" xml:space="preserve">no_last_words.pushBack(' ')</text>
    </g>
    <g fill="url(#linearGradient16)" text-rendering="geometricPrecision" shape-rendering="geometricPrecision" transform="matrix(1,0,0,1,-254,-85)" stroke="url(#linearGradient16)">
      <rect x="362" width="236" height="40" y="1036" clip-path="url(#clipPath2)" stroke="none"/>
    </g>
    <g text-rendering="geometricPrecision" stroke-miterlimit="1.45" stroke-width="2" shape-rendering="geometricPrecision" transform="matrix(1,0,0,1,-254,-85)" stroke-linecap="butt">
      <rect fill="none" x="362" width="236" height="40" y="1036" clip-path="url(#clipPath2)"/>
      <path fill="none" d="M372 1036 L372 1076 M588 1036 L588 1076 M372 1036 Z" clip-path="url(#clipPath2)"/>
      <text x="372.1406" y="1060.7139" clip-path="url(#clipPath2)" font-family="sans-serif" stroke="none" font-weight="bold" stroke-width="1" xml:space="preserve">help_vec.popBack(word.getSize() + 1)</text>
    </g>
    <g fill="url(#linearGradient17)" text-rendering="geometricPrecision" shape-rendering="geometricPrecision" transform="matrix(1,0,0,1,-254,-85)" stroke="url(#linearGradient17)">
      <rect x="425.575" width="108.85" height="40" y="1106" clip-path="url(#clipPath2)" stroke="none"/>
    </g>
    <g text-rendering="geometricPrecision" stroke-miterlimit="1.45" stroke-width="2" shape-rendering="geometricPrecision" transform="matrix(1,0,0,1,-254,-85)" stroke-linecap="butt">
      <rect fill="none" x="425.575" width="108.85" height="40" y="1106" clip-path="url(#clipPath2)"/>
      <path fill="none" d="M435.575 1106 L435.575 1146 M524.425 1106 L524.425 1146 M435.575 1106 Z" clip-path="url(#clipPath2)"/>
      <text x="445.9922" y="1130.7139" clip-path="url(#clipPath2)" font-family="sans-serif" stroke="none" font-weight="bold" stroke-width="1" xml:space="preserve">word.clear()</text>
    </g>
    <g fill="url(#linearGradient18)" text-rendering="geometricPrecision" shape-rendering="geometricPrecision" transform="matrix(1,0,0,1,-254,-85)" stroke="url(#linearGradient18)">
      <path d="M440 1176 L520 1176 L520 1206 L510 1216 L450 1216 L440 1206 Z" stroke="none" clip-path="url(#clipPath2)"/>
    </g>
    <g text-rendering="geometricPrecision" stroke-miterlimit="1.45" stroke-width="2" shape-rendering="geometricPrecision" transform="matrix(1,0,0,1,-254,-85)" stroke-linecap="butt">
      <path fill="none" d="M440 1176 L520 1176 L520 1206 L510 1216 L450 1216 L440 1206 Z" clip-path="url(#clipPath2)"/>
      <text x="459.1143" y="1200.7139" clip-path="url(#clipPath2)" font-family="sans-serif" stroke="none" font-weight="bold" stroke-width="1" xml:space="preserve">Цикл B</text>
    </g>
    <g fill="url(#linearGradient19)" text-rendering="geometricPrecision" shape-rendering="geometricPrecision" transform="matrix(1,0,0,1,-254,-85)" stroke="url(#linearGradient19)">
      <circle r="20" clip-path="url(#clipPath2)" cx="480" cy="1266" stroke="none"/>
    </g>
    <g text-rendering="geometricPrecision" stroke-miterlimit="1.45" stroke-width="2" shape-rendering="geometricPrecision" transform="matrix(1,0,0,1,-254,-85)" stroke-linecap="butt">
      <circle fill="none" r="20" clip-path="url(#clipPath2)" cx="480" cy="1266"/>
      <text x="476.6631" y="1270.7139" clip-path="url(#clipPath2)" font-family="sans-serif" stroke="none" font-weight="bold" stroke-width="1" xml:space="preserve">2</text>
    </g>
    <g text-rendering="geometricPrecision" stroke-miterlimit="1.45" shape-rendering="geometricPrecision" transform="matrix(1,0,0,1,-254,-85)" stroke-linecap="butt">
      <path fill="none" d="M480 140.02 L480 169.9996" clip-path="url(#clipPath2)"/>
    </g>
    <g text-rendering="geometricPrecision" stroke-miterlimit="1.45" shape-rendering="geometricPrecision" transform="matrix(1,0,0,1,-254,-85)" stroke-linecap="butt">
      <path fill="none" d="M557.9999 199 L632.5 199 L632.5 241.9966" clip-path="url(#clipPath2)"/>
      <path d="M632.5 249.9966 L637.5 237.9966 L632.5 240.9966 L627.5 237.9966 Z" clip-path="url(#clipPath2)" stroke="none"/>
      <text x="584.4553" y="187.374" clip-path="url(#clipPath2)" font-family="sans-serif" stroke="none" font-weight="bold" xml:space="preserve">Да</text>
      <text x="351.4553" y="275.374" clip-path="url(#clipPath2)" font-family="sans-serif" stroke="none" font-weight="bold" xml:space="preserve">Да</text>
      <text x="491.5685" y="881.5998" clip-path="url(#clipPath2)" font-family="sans-serif" stroke="none" font-weight="bold" xml:space="preserve">Да</text>
      <path fill="none" d="M480 228.0142 L480 242.0137" clip-path="url(#clipPath2)"/>
      <path d="M480 250.0137 L485 238.0137 L480 241.0137 L475 238.0137 Z" clip-path="url(#clipPath2)" stroke="none"/>
      <text x="487.7886" y="240.0998" clip-path="url(#clipPath2)" font-family="sans-serif" stroke="none" font-weight="bold" xml:space="preserve">Нет</text>
      <text x="487.7886" y="352.8998" clip-path="url(#clipPath2)" font-family="sans-serif" stroke="none" font-weight="bold" xml:space="preserve">Нет</text>
      <text x="351.2103" y="833.3112" clip-path="url(#clipPath2)" font-family="sans-serif" stroke="none" font-weight="bold" xml:space="preserve">Нет</text>
      <path fill="none" d="M397.4927 286 L330 286 L330 311.9873" clip-path="url(#clipPath2)"/>
      <path d="M330 319.9873 L335 307.9873 L330 310.9873 L325 307.9873 Z" clip-path="url(#clipPath2)" stroke="none"/>
      <path fill="none" d="M480 321.9951 L480 382.0184" clip-path="url(#clipPath2)"/>
      <path d="M480 390.0184 L485 378.0184 L480 381.0184 L475 378.0184 Z" clip-path="url(#clipPath2)" stroke="none"/>
      <path fill="none" d="M330 360.0028 L330 376.125 L480 376.125 L480 389.9729" clip-path="url(#clipPath2)"/>
      <path fill="none" d="M632.5 289.9951 L632.5 320.0273" clip-path="url(#clipPath2)"/>
      <path fill="none" d="M480 429.9951 L480 460.0273" clip-path="url(#clipPath2)"/>
      <path fill="none" d="M480 499.9951 L480 515 L480 515 L480 530.0049" clip-path="url(#clipPath2)"/>
      <path fill="none" d="M480 569.9951 L480 600.0273" clip-path="url(#clipPath2)"/>
      <path fill="none" d="M480 639.9951 L480 670.0273" clip-path="url(#clipPath2)"/>
      <path fill="none" d="M480 709.9951 L480 725 L480 725 L480 740.0049" clip-path="url(#clipPath2)"/>
      <path fill="none" d="M480 779.9951 L480 809.9888" clip-path="url(#clipPath2)"/>
      <path fill="none" d="M480 865.9932 L480 888.0266" clip-path="url(#clipPath2)"/>
      <path d="M480 896.0266 L485 884.0266 L480 887.0266 L475 884.0266 Z" clip-path="url(#clipPath2)" stroke="none"/>
      <path fill="none" d="M480 935.9951 L480 966.0273" clip-path="url(#clipPath2)"/>
      <path fill="none" d="M480 1005.9951 L480 1036.0273" clip-path="url(#clipPath2)"/>
      <path fill="none" d="M480 1075.9951 L480 1106.0273" clip-path="url(#clipPath2)"/>
      <path fill="none" d="M379.9878 838 L330 838 L330 1094.6523 L480 1094.6523 L480 1098.0132" clip-path="url(#clipPath2)"/>
      <path d="M480 1106.0132 L485 1094.0132 L480 1097.0132 L475 1094.0132 Z" clip-path="url(#clipPath2)" stroke="none"/>
      <path fill="none" d="M480 1145.9951 L480 1176.0273" clip-path="url(#clipPath2)"/>
      <path fill="none" d="M480 1215.9951 L480 1231 L480 1231 L480 1246.0049" clip-path="url(#clipPath2)"/>
    </g>
  </g>
</svg>
