<?xml version="1.0" encoding="UTF-8"?><svg xmlns="http://www.w3.org/2000/svg" xmlns:xlink="http://www.w3.org/1999/xlink" fill-opacity="1" color-rendering="auto" color-interpolation="auto" text-rendering="auto" stroke="black" stroke-linecap="square" width="691" stroke-miterlimit="10" shape-rendering="auto" stroke-opacity="1" fill="black" stroke-dasharray="none" font-weight="normal" stroke-width="1" height="1405" font-family="'Dialog'" font-style="normal" stroke-linejoin="miter" font-size="12px" stroke-dashoffset="0" image-rendering="auto">
  <!--Generated by ySVG 2.6-->
  <defs id="genericDefs"/>
  <g>
    <defs id="defs1">
      <linearGradient x1="440" gradientUnits="userSpaceOnUse" x2="520" y1="200.625" y2="240.625" id="linearGradient1" spreadMethod="reflect">
        <stop stop-opacity="1" stop-color="rgb(232,238,247)" offset="0%"/>
        <stop stop-opacity="1" stop-color="rgb(183,201,227)" offset="100%"/>
      </linearGradient>
      <linearGradient x1="376.25" gradientUnits="userSpaceOnUse" x2="593.75" y1="270.625" y2="333.125" id="linearGradient2" spreadMethod="reflect">
        <stop stop-opacity="1" stop-color="rgb(232,238,247)" offset="0%"/>
        <stop stop-opacity="1" stop-color="rgb(183,201,227)" offset="100%"/>
      </linearGradient>
      <linearGradient x1="352" gradientUnits="userSpaceOnUse" x2="608" y1="360" y2="400" id="linearGradient3" spreadMethod="reflect">
        <stop stop-opacity="1" stop-color="rgb(232,238,247)" offset="0%"/>
        <stop stop-opacity="1" stop-color="rgb(183,201,227)" offset="100%"/>
      </linearGradient>
      <linearGradient x1="440" gradientUnits="userSpaceOnUse" x2="520" y1="430" y2="470" id="linearGradient4" spreadMethod="reflect">
        <stop stop-opacity="1" stop-color="rgb(232,238,247)" offset="0%"/>
        <stop stop-opacity="1" stop-color="rgb(183,201,227)" offset="100%"/>
      </linearGradient>
      <linearGradient x1="417" gradientUnits="userSpaceOnUse" x2="543" y1="500" y2="540" id="linearGradient5" spreadMethod="reflect">
        <stop stop-opacity="1" stop-color="rgb(232,238,247)" offset="0%"/>
        <stop stop-opacity="1" stop-color="rgb(183,201,227)" offset="100%"/>
      </linearGradient>
      <linearGradient x1="380.2" gradientUnits="userSpaceOnUse" x2="579.8" y1="563.6" y2="632.4" id="linearGradient6" spreadMethod="reflect">
        <stop stop-opacity="1" stop-color="rgb(232,238,247)" offset="0%"/>
        <stop stop-opacity="1" stop-color="rgb(183,201,227)" offset="100%"/>
      </linearGradient>
      <linearGradient x1="380.2" gradientUnits="userSpaceOnUse" x2="579.8" y1="662.4" y2="731.2" id="linearGradient7" spreadMethod="reflect">
        <stop stop-opacity="1" stop-color="rgb(232,238,247)" offset="0%"/>
        <stop stop-opacity="1" stop-color="rgb(183,201,227)" offset="100%"/>
      </linearGradient>
      <linearGradient x1="687" gradientUnits="userSpaceOnUse" x2="813" y1="730" y2="770" id="linearGradient8" spreadMethod="reflect">
        <stop stop-opacity="1" stop-color="rgb(232,238,247)" offset="0%"/>
        <stop stop-opacity="1" stop-color="rgb(183,201,227)" offset="100%"/>
      </linearGradient>
      <linearGradient x1="653.2" gradientUnits="userSpaceOnUse" x2="846.8" y1="800" y2="840" id="linearGradient9" spreadMethod="reflect">
        <stop stop-opacity="1" stop-color="rgb(232,238,247)" offset="0%"/>
        <stop stop-opacity="1" stop-color="rgb(183,201,227)" offset="100%"/>
      </linearGradient>
      <linearGradient x1="421.7" gradientUnits="userSpaceOnUse" x2="538.3" y1="754" y2="806" id="linearGradient10" spreadMethod="reflect">
        <stop stop-opacity="1" stop-color="rgb(232,238,247)" offset="0%"/>
        <stop stop-opacity="1" stop-color="rgb(183,201,227)" offset="100%"/>
      </linearGradient>
      <linearGradient x1="254.25" gradientUnits="userSpaceOnUse" x2="405.75" y1="794" y2="846" id="linearGradient11" spreadMethod="reflect">
        <stop stop-opacity="1" stop-color="rgb(232,238,247)" offset="0%"/>
        <stop stop-opacity="1" stop-color="rgb(183,201,227)" offset="100%"/>
      </linearGradient>
      <linearGradient x1="254.25" gradientUnits="userSpaceOnUse" x2="405.75" y1="876" y2="928" id="linearGradient12" spreadMethod="reflect">
        <stop stop-opacity="1" stop-color="rgb(232,238,247)" offset="0%"/>
        <stop stop-opacity="1" stop-color="rgb(183,201,227)" offset="100%"/>
      </linearGradient>
      <linearGradient x1="274.8" gradientUnits="userSpaceOnUse" x2="385.2" y1="958" y2="998" id="linearGradient13" spreadMethod="reflect">
        <stop stop-opacity="1" stop-color="rgb(232,238,247)" offset="0%"/>
        <stop stop-opacity="1" stop-color="rgb(183,201,227)" offset="100%"/>
      </linearGradient>
      <linearGradient x1="267.2" gradientUnits="userSpaceOnUse" x2="392.8" y1="1028" y2="1080" id="linearGradient14" spreadMethod="reflect">
        <stop stop-opacity="1" stop-color="rgb(232,238,247)" offset="0%"/>
        <stop stop-opacity="1" stop-color="rgb(183,201,227)" offset="100%"/>
      </linearGradient>
      <linearGradient x1="274.8" gradientUnits="userSpaceOnUse" x2="385.2" y1="1110" y2="1150" id="linearGradient15" spreadMethod="reflect">
        <stop stop-opacity="1" stop-color="rgb(232,238,247)" offset="0%"/>
        <stop stop-opacity="1" stop-color="rgb(183,201,227)" offset="100%"/>
      </linearGradient>
      <linearGradient x1="257.125" gradientUnits="userSpaceOnUse" x2="402.875" y1="1180" y2="1220" id="linearGradient16" spreadMethod="reflect">
        <stop stop-opacity="1" stop-color="rgb(232,238,247)" offset="0%"/>
        <stop stop-opacity="1" stop-color="rgb(183,201,227)" offset="100%"/>
      </linearGradient>
      <linearGradient x1="267.2" gradientUnits="userSpaceOnUse" x2="392.8" y1="1250" y2="1290" id="linearGradient17" spreadMethod="reflect">
        <stop stop-opacity="1" stop-color="rgb(232,238,247)" offset="0%"/>
        <stop stop-opacity="1" stop-color="rgb(183,201,227)" offset="100%"/>
      </linearGradient>
      <linearGradient x1="267.2" gradientUnits="userSpaceOnUse" x2="392.8" y1="1390" y2="1430" id="linearGradient18" spreadMethod="reflect">
        <stop stop-opacity="1" stop-color="rgb(232,238,247)" offset="0%"/>
        <stop stop-opacity="1" stop-color="rgb(183,201,227)" offset="100%"/>
      </linearGradient>
      <linearGradient x1="282.4" gradientUnits="userSpaceOnUse" x2="377.6" y1="1320" y2="1360" id="linearGradient19" spreadMethod="reflect">
        <stop stop-opacity="1" stop-color="rgb(232,238,247)" offset="0%"/>
        <stop stop-opacity="1" stop-color="rgb(183,201,227)" offset="100%"/>
      </linearGradient>
      <linearGradient x1="424.8" gradientUnits="userSpaceOnUse" x2="535.2" y1="846" y2="898" id="linearGradient20" spreadMethod="reflect">
        <stop stop-opacity="1" stop-color="rgb(232,238,247)" offset="0%"/>
        <stop stop-opacity="1" stop-color="rgb(183,201,227)" offset="100%"/>
      </linearGradient>
      <linearGradient x1="597" gradientUnits="userSpaceOnUse" x2="723" y1="940" y2="980" id="linearGradient21" spreadMethod="reflect">
        <stop stop-opacity="1" stop-color="rgb(232,238,247)" offset="0%"/>
        <stop stop-opacity="1" stop-color="rgb(183,201,227)" offset="100%"/>
      </linearGradient>
      <linearGradient x1="417.2" gradientUnits="userSpaceOnUse" x2="542.8" y1="940" y2="980" id="linearGradient22" spreadMethod="reflect">
        <stop stop-opacity="1" stop-color="rgb(232,238,247)" offset="0%"/>
        <stop stop-opacity="1" stop-color="rgb(183,201,227)" offset="100%"/>
      </linearGradient>
      <linearGradient x1="412" gradientUnits="userSpaceOnUse" x2="548" y1="1010" y2="1050" id="linearGradient23" spreadMethod="reflect">
        <stop stop-opacity="1" stop-color="rgb(232,238,247)" offset="0%"/>
        <stop stop-opacity="1" stop-color="rgb(183,201,227)" offset="100%"/>
      </linearGradient>
      <linearGradient x1="426" gradientUnits="userSpaceOnUse" x2="534" y1="1080" y2="1120" id="linearGradient24" spreadMethod="reflect">
        <stop stop-opacity="1" stop-color="rgb(232,238,247)" offset="0%"/>
        <stop stop-opacity="1" stop-color="rgb(183,201,227)" offset="100%"/>
      </linearGradient>
      <linearGradient x1="429.5" gradientUnits="userSpaceOnUse" x2="530.5" y1="1465" y2="1505" id="linearGradient25" spreadMethod="reflect">
        <stop stop-opacity="1" stop-color="rgb(232,238,247)" offset="0%"/>
        <stop stop-opacity="1" stop-color="rgb(183,201,227)" offset="100%"/>
      </linearGradient>
      <linearGradient x1="440" gradientUnits="userSpaceOnUse" x2="520" y1="1535" y2="1575" id="linearGradient26" spreadMethod="reflect">
        <stop stop-opacity="1" stop-color="rgb(232,238,247)" offset="0%"/>
        <stop stop-opacity="1" stop-color="rgb(183,201,227)" offset="100%"/>
      </linearGradient>
      <clipPath clipPathUnits="userSpaceOnUse" id="clipPath1">
        <path d="M0 0 L691 0 L691 1405 L0 1405 L0 0 Z"/>
      </clipPath>
      <clipPath clipPathUnits="userSpaceOnUse" id="clipPath2">
        <path d="M195 185 L886 185 L886 1590 L195 1590 L195 185 Z"/>
      </clipPath>
    </defs>
    <g fill="url(#linearGradient1)" text-rendering="geometricPrecision" shape-rendering="geometricPrecision" transform="matrix(1,0,0,1,-195,-185)" stroke="url(#linearGradient1)">
      <rect x="440" y="200.625" clip-path="url(#clipPath2)" width="80" rx="20" ry="20" height="40" stroke="none"/>
    </g>
    <g text-rendering="geometricPrecision" stroke-miterlimit="1.45" stroke-width="2" shape-rendering="geometricPrecision" transform="matrix(1,0,0,1,-195,-185)" stroke-linecap="butt">
      <rect x="440" y="200.625" clip-path="url(#clipPath2)" fill="none" width="80" rx="20" ry="20" height="40"/>
      <text x="458.0332" y="225.3389" clip-path="url(#clipPath2)" font-family="sans-serif" stroke="none" font-weight="bold" stroke-width="1" xml:space="preserve">Начало</text>
    </g>
    <g fill="url(#linearGradient2)" text-rendering="geometricPrecision" shape-rendering="geometricPrecision" transform="matrix(1,0,0,1,-195,-185)" stroke="url(#linearGradient2)">
      <path d="M392.1875 270.625 L593.75 270.625 L577.8125 333.125 L376.25 333.125 Z" stroke="none" clip-path="url(#clipPath2)"/>
    </g>
    <g text-rendering="geometricPrecision" stroke-miterlimit="1.45" stroke-width="2" shape-rendering="geometricPrecision" transform="matrix(1,0,0,1,-195,-185)" stroke-linecap="butt">
      <path fill="none" d="M392.1875 270.625 L593.75 270.625 L577.8125 333.125 L376.25 333.125 Z" clip-path="url(#clipPath2)"/>
      <text x="396.6348" y="284.5371" clip-path="url(#clipPath2)" font-family="sans-serif" stroke="none" font-weight="bold" stroke-width="1" xml:space="preserve">vec, last_word, no_last_words,</text>
      <text x="392.9785" y="299.2383" clip-path="url(#clipPath2)" font-family="sans-serif" stroke="none" font-weight="bold" stroke-width="1" xml:space="preserve">help_vec, word, ending, ov, ova,</text>
      <text x="429.3096" y="313.9395" clip-path="url(#clipPath2)" font-family="sans-serif" stroke="none" font-weight="bold" stroke-width="1" xml:space="preserve">ev, eva, in, ina, idze</text>
      <text x="443.9814" y="328.6406" clip-path="url(#clipPath2)" font-family="sans-serif" stroke="none" font-weight="bold" stroke-width="1" xml:space="preserve">character, flag</text>
    </g>
    <g fill="url(#linearGradient3)" text-rendering="geometricPrecision" shape-rendering="geometricPrecision" transform="matrix(1,0,0,1,-195,-185)" stroke="url(#linearGradient3)">
      <rect x="352" width="256" height="40" y="360" clip-path="url(#clipPath2)" stroke="none"/>
    </g>
    <g text-rendering="geometricPrecision" stroke-miterlimit="1.45" stroke-width="2" shape-rendering="geometricPrecision" transform="matrix(1,0,0,1,-195,-185)" stroke-linecap="butt">
      <rect fill="none" x="352" width="256" height="40" y="360" clip-path="url(#clipPath2)"/>
      <path fill="none" d="M362 360 L362 400 M598 360 L598 400 M362 360 Z" clip-path="url(#clipPath2)"/>
      <text x="364.623" y="384.7139" clip-path="url(#clipPath2)" font-family="sans-serif" stroke="none" font-weight="bold" stroke-width="1" xml:space="preserve">fill_vectors(ov, ova, in, ina, ev, eva, idze)</text>
    </g>
    <g fill="url(#linearGradient4)" text-rendering="geometricPrecision" shape-rendering="geometricPrecision" transform="matrix(1,0,0,1,-195,-185)" stroke="url(#linearGradient4)">
      <path d="M450 430 L510 430 L520 440 L520 470 L440 470 L440 440 Z" stroke="none" clip-path="url(#clipPath2)"/>
    </g>
    <g text-rendering="geometricPrecision" stroke-miterlimit="1.45" stroke-width="2" shape-rendering="geometricPrecision" transform="matrix(1,0,0,1,-195,-185)" stroke-linecap="butt">
      <path fill="none" d="M450 430 L510 430 L520 440 L520 470 L440 470 L440 440 Z" clip-path="url(#clipPath2)"/>
      <text x="459.1143" y="454.7139" clip-path="url(#clipPath2)" font-family="sans-serif" stroke="none" font-weight="bold" stroke-width="1" xml:space="preserve">Цикл A</text>
    </g>
    <g fill="url(#linearGradient5)" text-rendering="geometricPrecision" shape-rendering="geometricPrecision" transform="matrix(1,0,0,1,-195,-185)" stroke="url(#linearGradient5)">
      <path d="M417 500 L543 500 L543 540 L417 540 Z" stroke="none" clip-path="url(#clipPath2)"/>
    </g>
    <g text-rendering="geometricPrecision" stroke-miterlimit="1.45" stroke-width="2" shape-rendering="geometricPrecision" transform="matrix(1,0,0,1,-195,-185)" stroke-linecap="butt">
      <path fill="none" d="M417 500 L543 500 L543 540 L417 540 Z" clip-path="url(#clipPath2)"/>
      <text x="422.8096" y="524.7139" clip-path="url(#clipPath2)" font-family="sans-serif" stroke="none" font-weight="bold" stroke-width="1" xml:space="preserve">character = _getch()</text>
    </g>
    <g fill="url(#linearGradient6)" text-rendering="geometricPrecision" shape-rendering="geometricPrecision" transform="matrix(1,0,0,1,-195,-185)" stroke="url(#linearGradient6)">
      <path d="M480 563.6 L579.8 598 L480 632.4 L380.2 598 Z" stroke="none" clip-path="url(#clipPath2)"/>
    </g>
    <g text-rendering="geometricPrecision" stroke-miterlimit="1.45" stroke-width="2" shape-rendering="geometricPrecision" transform="matrix(1,0,0,1,-195,-185)" stroke-linecap="butt">
      <path fill="none" d="M480 563.6 L579.8 598 L480 632.4 L380.2 598 Z" clip-path="url(#clipPath2)"/>
      <text x="398.2881" y="580.6621" clip-path="url(#clipPath2)" font-family="sans-serif" stroke="none" font-weight="bold" stroke-width="1" xml:space="preserve">!((97 &lt;= character &lt;= 122) or </text>
      <text x="424.79" y="595.3633" clip-path="url(#clipPath2)" font-family="sans-serif" stroke="none" font-weight="bold" stroke-width="1" xml:space="preserve">(character == ' ') or </text>
      <text x="421.125" y="610.0645" clip-path="url(#clipPath2)" font-family="sans-serif" stroke="none" font-weight="bold" stroke-width="1" xml:space="preserve">(character == '\b') or </text>
      <text x="432.126" y="624.7656" clip-path="url(#clipPath2)" font-family="sans-serif" stroke="none" font-weight="bold" stroke-width="1" xml:space="preserve">(character == '.'))</text>
    </g>
    <g fill="url(#linearGradient7)" text-rendering="geometricPrecision" shape-rendering="geometricPrecision" transform="matrix(1,0,0,1,-195,-185)" stroke="url(#linearGradient7)">
      <path d="M480 662.4 L579.8 696.8 L480 731.2 L380.2 696.8 Z" stroke="none" clip-path="url(#clipPath2)"/>
    </g>
    <g text-rendering="geometricPrecision" stroke-miterlimit="1.45" stroke-width="2" shape-rendering="geometricPrecision" transform="matrix(1,0,0,1,-195,-185)" stroke-linecap="butt">
      <path fill="none" d="M480 662.4 L579.8 696.8 L480 731.2 L380.2 696.8 Z" clip-path="url(#clipPath2)"/>
      <text x="424.1191" y="686.8127" clip-path="url(#clipPath2)" font-family="sans-serif" stroke="none" font-weight="bold" stroke-width="1" xml:space="preserve">character == ' ' and </text>
      <text x="418.3096" y="701.5139" clip-path="url(#clipPath2)" font-family="sans-serif" stroke="none" font-weight="bold" stroke-width="1" xml:space="preserve">(vec.getSize() == 0 or </text>
      <text x="403.7842" y="716.215" clip-path="url(#clipPath2)" font-family="sans-serif" stroke="none" font-weight="bold" stroke-width="1" xml:space="preserve">vec[vec.getSize() - 1] == ' ')</text>
    </g>
    <g fill="url(#linearGradient8)" text-rendering="geometricPrecision" shape-rendering="geometricPrecision" transform="matrix(1,0,0,1,-195,-185)" stroke="url(#linearGradient8)">
      <rect x="687" width="126" height="40" y="730" clip-path="url(#clipPath2)" stroke="none"/>
    </g>
    <g text-rendering="geometricPrecision" stroke-miterlimit="1.45" stroke-width="2" shape-rendering="geometricPrecision" transform="matrix(1,0,0,1,-195,-185)" stroke-linecap="butt">
      <rect fill="none" x="687" width="126" height="40" y="730" clip-path="url(#clipPath2)"/>
      <path fill="none" d="M697 730 L697 770 M803 730 L803 770 M697 730 Z" clip-path="url(#clipPath2)"/>
      <text x="699.3193" y="754.7139" clip-path="url(#clipPath2)" font-family="sans-serif" stroke="none" font-weight="bold" stroke-width="1" xml:space="preserve">_putch(character)</text>
    </g>
    <g fill="url(#linearGradient9)" text-rendering="geometricPrecision" shape-rendering="geometricPrecision" transform="matrix(1,0,0,1,-195,-185)" stroke="url(#linearGradient9)">
      <rect x="653.2" width="193.6" height="40" y="800" clip-path="url(#clipPath2)" stroke="none"/>
    </g>
    <g text-rendering="geometricPrecision" stroke-miterlimit="1.45" stroke-width="2" shape-rendering="geometricPrecision" transform="matrix(1,0,0,1,-195,-185)" stroke-linecap="butt">
      <rect fill="none" x="653.2" width="193.6" height="40" y="800" clip-path="url(#clipPath2)"/>
      <path fill="none" d="M663.2 800 L663.2 840 M836.8 800 L836.8 840 M663.2 800 Z" clip-path="url(#clipPath2)"/>
      <text x="662.9619" y="824.7139" clip-path="url(#clipPath2)" font-family="sans-serif" stroke="none" font-weight="bold" stroke-width="1" xml:space="preserve">help_vec.pushBack(character)</text>
    </g>
    <g fill="url(#linearGradient10)" text-rendering="geometricPrecision" shape-rendering="geometricPrecision" transform="matrix(1,0,0,1,-195,-185)" stroke="url(#linearGradient10)">
      <path d="M480 754 L538.3 780 L480 806 L421.7 780 Z" stroke="none" clip-path="url(#clipPath2)"/>
    </g>
    <g text-rendering="geometricPrecision" stroke-miterlimit="1.45" stroke-width="2" shape-rendering="geometricPrecision" transform="matrix(1,0,0,1,-195,-185)" stroke-linecap="butt">
      <path fill="none" d="M480 754 L538.3 780 L480 806 L421.7 780 Z" clip-path="url(#clipPath2)"/>
      <text x="434.4551" y="784.7139" clip-path="url(#clipPath2)" font-family="sans-serif" stroke="none" font-weight="bold" stroke-width="1" xml:space="preserve">character == '\b'</text>
    </g>
    <g fill="url(#linearGradient11)" text-rendering="geometricPrecision" shape-rendering="geometricPrecision" transform="matrix(1,0,0,1,-195,-185)" stroke="url(#linearGradient11)">
      <path d="M330 794 L405.75 820 L330 846 L254.25 820 Z" stroke="none" clip-path="url(#clipPath2)"/>
    </g>
    <g text-rendering="geometricPrecision" stroke-miterlimit="1.45" stroke-width="2" shape-rendering="geometricPrecision" transform="matrix(1,0,0,1,-195,-185)" stroke-linecap="butt">
      <path fill="none" d="M330 794 L405.75 820 L330 846 L254.25 820 Z" clip-path="url(#clipPath2)"/>
      <text x="263.9707" y="824.7139" clip-path="url(#clipPath2)" font-family="sans-serif" stroke="none" font-weight="bold" stroke-width="1" xml:space="preserve">help_vec.getSize() == 0</text>
    </g>
    <g fill="url(#linearGradient12)" text-rendering="geometricPrecision" shape-rendering="geometricPrecision" transform="matrix(1,0,0,1,-195,-185)" stroke="url(#linearGradient12)">
      <path d="M330 876 L405.75 902 L330 928 L254.25 902 Z" stroke="none" clip-path="url(#clipPath2)"/>
    </g>
    <g text-rendering="geometricPrecision" stroke-miterlimit="1.45" stroke-width="2" shape-rendering="geometricPrecision" transform="matrix(1,0,0,1,-195,-185)" stroke-linecap="butt">
      <path fill="none" d="M330 876 L405.75 902 L330 928 L254.25 902 Z" clip-path="url(#clipPath2)"/>
      <text x="269.1445" y="899.3633" clip-path="url(#clipPath2)" font-family="sans-serif" stroke="none" font-weight="bold" stroke-width="1" xml:space="preserve">vec.getSize() &gt; 1 and </text>
      <text x="255.7822" y="914.0645" clip-path="url(#clipPath2)" font-family="sans-serif" stroke="none" font-weight="bold" stroke-width="1" xml:space="preserve">vec[vec.getSize() - 1] == ' '</text>
    </g>
    <g fill="url(#linearGradient13)" text-rendering="geometricPrecision" shape-rendering="geometricPrecision" transform="matrix(1,0,0,1,-195,-185)" stroke="url(#linearGradient13)">
      <rect x="274.8" width="110.4" height="40" y="958" clip-path="url(#clipPath2)" stroke="none"/>
    </g>
    <g text-rendering="geometricPrecision" stroke-miterlimit="1.45" stroke-width="2" shape-rendering="geometricPrecision" transform="matrix(1,0,0,1,-195,-185)" stroke-linecap="butt">
      <rect fill="none" x="274.8" width="110.4" height="40" y="958" clip-path="url(#clipPath2)"/>
      <path fill="none" d="M284.8 958 L284.8 998 M375.2 958 L375.2 998 M284.8 958 Z" clip-path="url(#clipPath2)"/>
      <text x="288.9873" y="982.7139" clip-path="url(#clipPath2)" font-family="sans-serif" stroke="none" font-weight="bold" stroke-width="1" xml:space="preserve">vec.popBack()</text>
    </g>
    <g fill="url(#linearGradient14)" text-rendering="geometricPrecision" shape-rendering="geometricPrecision" transform="matrix(1,0,0,1,-195,-185)" stroke="url(#linearGradient14)">
      <path d="M330 1028 L392.8 1054 L330 1080 L267.2 1054 Z" stroke="none" clip-path="url(#clipPath2)"/>
    </g>
    <g text-rendering="geometricPrecision" stroke-miterlimit="1.45" stroke-width="2" shape-rendering="geometricPrecision" transform="matrix(1,0,0,1,-195,-185)" stroke-linecap="butt">
      <path fill="none" d="M330 1028 L392.8 1054 L330 1080 L267.2 1054 Z" clip-path="url(#clipPath2)"/>
      <text x="274.9717" y="1051.3633" clip-path="url(#clipPath2)" font-family="sans-serif" stroke="none" font-weight="bold" stroke-width="1" xml:space="preserve">help_vec[help_vec.</text>
      <text x="280.9746" y="1066.0645" clip-path="url(#clipPath2)" font-family="sans-serif" stroke="none" font-weight="bold" stroke-width="1" xml:space="preserve">getSize() - 1] != ' '</text>
    </g>
    <g fill="url(#linearGradient15)" text-rendering="geometricPrecision" shape-rendering="geometricPrecision" transform="matrix(1,0,0,1,-195,-185)" stroke="url(#linearGradient15)">
      <rect x="274.8" width="110.4" height="40" y="1110" clip-path="url(#clipPath2)" stroke="none"/>
    </g>
    <g text-rendering="geometricPrecision" stroke-miterlimit="1.45" stroke-width="2" shape-rendering="geometricPrecision" transform="matrix(1,0,0,1,-195,-185)" stroke-linecap="butt">
      <rect fill="none" x="274.8" width="110.4" height="40" y="1110" clip-path="url(#clipPath2)"/>
      <path fill="none" d="M284.8 1110 L284.8 1150 M375.2 1110 L375.2 1150 M284.8 1110 Z" clip-path="url(#clipPath2)"/>
      <text x="288.9873" y="1134.7139" clip-path="url(#clipPath2)" font-family="sans-serif" stroke="none" font-weight="bold" stroke-width="1" xml:space="preserve">vec.popBack()</text>
    </g>
    <g fill="url(#linearGradient16)" text-rendering="geometricPrecision" shape-rendering="geometricPrecision" transform="matrix(1,0,0,1,-195,-185)" stroke="url(#linearGradient16)">
      <rect x="257.125" width="145.75" height="40" y="1180" clip-path="url(#clipPath2)" stroke="none"/>
    </g>
    <g text-rendering="geometricPrecision" stroke-miterlimit="1.45" stroke-width="2" shape-rendering="geometricPrecision" transform="matrix(1,0,0,1,-195,-185)" stroke-linecap="butt">
      <rect fill="none" x="257.125" width="145.75" height="40" y="1180" clip-path="url(#clipPath2)"/>
      <path fill="none" d="M267.125 1180 L267.125 1220 M392.875 1180 L392.875 1220 M267.125 1180 Z" clip-path="url(#clipPath2)"/>
      <text x="273.3164" y="1204.7139" clip-path="url(#clipPath2)" font-family="sans-serif" stroke="none" font-weight="bold" stroke-width="1" xml:space="preserve">help_vec.popBack()</text>
    </g>
    <g fill="url(#linearGradient17)" text-rendering="geometricPrecision" shape-rendering="geometricPrecision" transform="matrix(1,0,0,1,-195,-185)" stroke="url(#linearGradient17)">
      <rect x="267.2" width="125.6" height="40" y="1250" clip-path="url(#clipPath2)" stroke="none"/>
    </g>
    <g text-rendering="geometricPrecision" stroke-miterlimit="1.45" stroke-width="2" shape-rendering="geometricPrecision" transform="matrix(1,0,0,1,-195,-185)" stroke-linecap="butt">
      <rect fill="none" x="267.2" width="125.6" height="40" y="1250" clip-path="url(#clipPath2)"/>
      <path fill="none" d="M277.2 1250 L277.2 1290 M382.8 1250 L382.8 1290 M277.2 1250 Z" clip-path="url(#clipPath2)"/>
      <text x="279.3193" y="1274.7139" clip-path="url(#clipPath2)" font-family="sans-serif" stroke="none" font-weight="bold" stroke-width="1" xml:space="preserve">_putch(character)</text>
    </g>
    <g fill="url(#linearGradient18)" text-rendering="geometricPrecision" shape-rendering="geometricPrecision" transform="matrix(1,0,0,1,-195,-185)" stroke="url(#linearGradient18)">
      <rect x="267.2" width="125.6" height="40" y="1390" clip-path="url(#clipPath2)" stroke="none"/>
    </g>
    <g text-rendering="geometricPrecision" stroke-miterlimit="1.45" stroke-width="2" shape-rendering="geometricPrecision" transform="matrix(1,0,0,1,-195,-185)" stroke-linecap="butt">
      <rect fill="none" x="267.2" width="125.6" height="40" y="1390" clip-path="url(#clipPath2)"/>
      <path fill="none" d="M277.2 1390 L277.2 1430 M382.8 1390 L382.8 1430 M277.2 1390 Z" clip-path="url(#clipPath2)"/>
      <text x="279.3193" y="1414.7139" clip-path="url(#clipPath2)" font-family="sans-serif" stroke="none" font-weight="bold" stroke-width="1" xml:space="preserve">_putch(character)</text>
    </g>
    <g fill="url(#linearGradient19)" text-rendering="geometricPrecision" shape-rendering="geometricPrecision" transform="matrix(1,0,0,1,-195,-185)" stroke="url(#linearGradient19)">
      <rect x="282.4" width="95.2" height="40" y="1320" clip-path="url(#clipPath2)" stroke="none"/>
    </g>
    <g text-rendering="geometricPrecision" stroke-miterlimit="1.45" stroke-width="2" shape-rendering="geometricPrecision" transform="matrix(1,0,0,1,-195,-185)" stroke-linecap="butt">
      <rect fill="none" x="282.4" width="95.2" height="40" y="1320" clip-path="url(#clipPath2)"/>
      <path fill="none" d="M292.4 1320 L292.4 1360 M367.6 1320 L367.6 1360 M292.4 1320 Z" clip-path="url(#clipPath2)"/>
      <text x="301.8164" y="1344.7139" clip-path="url(#clipPath2)" font-family="sans-serif" stroke="none" font-weight="bold" stroke-width="1" xml:space="preserve">_putch(' ')</text>
    </g>
    <g fill="url(#linearGradient20)" text-rendering="geometricPrecision" shape-rendering="geometricPrecision" transform="matrix(1,0,0,1,-195,-185)" stroke="url(#linearGradient20)">
      <path d="M480 846 L535.2 872 L480 898 L424.8 872 Z" stroke="none" clip-path="url(#clipPath2)"/>
    </g>
    <g text-rendering="geometricPrecision" stroke-miterlimit="1.45" stroke-width="2" shape-rendering="geometricPrecision" transform="matrix(1,0,0,1,-195,-185)" stroke-linecap="butt">
      <path fill="none" d="M480 846 L535.2 872 L480 898 L424.8 872 Z" clip-path="url(#clipPath2)"/>
      <text x="438.1201" y="876.7139" clip-path="url(#clipPath2)" font-family="sans-serif" stroke="none" font-weight="bold" stroke-width="1" xml:space="preserve">character == '.'</text>
    </g>
    <g fill="url(#linearGradient21)" text-rendering="geometricPrecision" shape-rendering="geometricPrecision" transform="matrix(1,0,0,1,-195,-185)" stroke="url(#linearGradient21)">
      <rect x="597" width="126" height="40" y="940" clip-path="url(#clipPath2)" stroke="none"/>
    </g>
    <g text-rendering="geometricPrecision" stroke-miterlimit="1.45" stroke-width="2" shape-rendering="geometricPrecision" transform="matrix(1,0,0,1,-195,-185)" stroke-linecap="butt">
      <rect fill="none" x="597" width="126" height="40" y="940" clip-path="url(#clipPath2)"/>
      <path fill="none" d="M607 940 L607 980 M713 940 L713 980 M607 940 Z" clip-path="url(#clipPath2)"/>
      <text x="609.3193" y="964.7139" clip-path="url(#clipPath2)" font-family="sans-serif" stroke="none" font-weight="bold" stroke-width="1" xml:space="preserve">_putch(character)</text>
    </g>
    <g fill="url(#linearGradient22)" text-rendering="geometricPrecision" shape-rendering="geometricPrecision" transform="matrix(1,0,0,1,-195,-185)" stroke="url(#linearGradient22)">
      <rect x="417.2" width="125.6" height="40" y="940" clip-path="url(#clipPath2)" stroke="none"/>
    </g>
    <g text-rendering="geometricPrecision" stroke-miterlimit="1.45" stroke-width="2" shape-rendering="geometricPrecision" transform="matrix(1,0,0,1,-195,-185)" stroke-linecap="butt">
      <rect fill="none" x="417.2" width="125.6" height="40" y="940" clip-path="url(#clipPath2)"/>
      <path fill="none" d="M427.2 940 L427.2 980 M532.8 940 L532.8 980 M427.2 940 Z" clip-path="url(#clipPath2)"/>
      <text x="429.3193" y="964.7139" clip-path="url(#clipPath2)" font-family="sans-serif" stroke="none" font-weight="bold" stroke-width="1" xml:space="preserve">_putch(character)</text>
    </g>
    <g fill="url(#linearGradient23)" text-rendering="geometricPrecision" shape-rendering="geometricPrecision" transform="matrix(1,0,0,1,-195,-185)" stroke="url(#linearGradient23)">
      <rect x="412" width="136" height="40" y="1010" clip-path="url(#clipPath2)" stroke="none"/>
    </g>
    <g text-rendering="geometricPrecision" stroke-miterlimit="1.45" stroke-width="2" shape-rendering="geometricPrecision" transform="matrix(1,0,0,1,-195,-185)" stroke-linecap="butt">
      <rect fill="none" x="412" width="136" height="40" y="1010" clip-path="url(#clipPath2)"/>
      <path fill="none" d="M422 1010 L422 1050 M538 1010 L538 1050 M422 1010 Z" clip-path="url(#clipPath2)"/>
      <text x="423.9756" y="1027.3633" clip-path="url(#clipPath2)" font-family="sans-serif" stroke="none" font-weight="bold" stroke-width="1" xml:space="preserve">help_vec.pushBack</text>
      <text x="448.9863" y="1042.0645" clip-path="url(#clipPath2)" font-family="sans-serif" stroke="none" font-weight="bold" stroke-width="1" xml:space="preserve">(character)</text>
    </g>
    <g fill="url(#linearGradient24)" text-rendering="geometricPrecision" shape-rendering="geometricPrecision" transform="matrix(1,0,0,1,-195,-185)" stroke="url(#linearGradient24)">
      <rect x="426" width="108" height="40" y="1080" clip-path="url(#clipPath2)" stroke="none"/>
    </g>
    <g text-rendering="geometricPrecision" stroke-miterlimit="1.45" stroke-width="2" shape-rendering="geometricPrecision" transform="matrix(1,0,0,1,-195,-185)" stroke-linecap="butt">
      <rect fill="none" x="426" width="108" height="40" y="1080" clip-path="url(#clipPath2)"/>
      <path fill="none" d="M436 1080 L436 1120 M524 1080 L524 1120 M436 1080 Z" clip-path="url(#clipPath2)"/>
      <text x="439.6465" y="1097.3633" clip-path="url(#clipPath2)" font-family="sans-serif" stroke="none" font-weight="bold" stroke-width="1" xml:space="preserve">vec.pushBack</text>
      <text x="448.9863" y="1112.0645" clip-path="url(#clipPath2)" font-family="sans-serif" stroke="none" font-weight="bold" stroke-width="1" xml:space="preserve">(character)</text>
    </g>
    <g fill="url(#linearGradient25)" text-rendering="geometricPrecision" shape-rendering="geometricPrecision" transform="matrix(1,0,0,1,-195,-185)" stroke="url(#linearGradient25)">
      <path d="M429.5 1465 L530.5 1465 L530.5 1495 L520.5 1505 L439.5 1505 L429.5 1495 Z" stroke="none" clip-path="url(#clipPath2)"/>
    </g>
    <g text-rendering="geometricPrecision" stroke-miterlimit="1.45" stroke-width="2" shape-rendering="geometricPrecision" transform="matrix(1,0,0,1,-195,-185)" stroke-linecap="butt">
      <path fill="none" d="M429.5 1465 L530.5 1465 L530.5 1495 L520.5 1505 L439.5 1505 L429.5 1495 Z" clip-path="url(#clipPath2)"/>
      <text x="459.1143" y="1482.3633" clip-path="url(#clipPath2)" font-family="sans-serif" stroke="none" font-weight="bold" stroke-width="1" xml:space="preserve">Цикл A</text>
      <text x="439.626" y="1497.0645" clip-path="url(#clipPath2)" font-family="sans-serif" stroke="none" font-weight="bold" stroke-width="1" xml:space="preserve">character != '.'</text>
    </g>
    <g fill="url(#linearGradient26)" text-rendering="geometricPrecision" shape-rendering="geometricPrecision" transform="matrix(1,0,0,1,-195,-185)" stroke="url(#linearGradient26)">
      <circle r="20" clip-path="url(#clipPath2)" cx="480" cy="1555" stroke="none"/>
    </g>
    <g text-rendering="geometricPrecision" stroke-miterlimit="1.45" stroke-width="2" shape-rendering="geometricPrecision" transform="matrix(1,0,0,1,-195,-185)" stroke-linecap="butt">
      <circle fill="none" r="20" clip-path="url(#clipPath2)" cx="480" cy="1555"/>
      <text x="476.6631" y="1559.7139" clip-path="url(#clipPath2)" font-family="sans-serif" stroke="none" font-weight="bold" stroke-width="1" xml:space="preserve">1</text>
    </g>
    <g text-rendering="geometricPrecision" stroke-miterlimit="1.45" shape-rendering="geometricPrecision" transform="matrix(1,0,0,1,-195,-185)" stroke-linecap="butt">
      <path fill="none" d="M480 240.6598 L480 270.6397" clip-path="url(#clipPath2)"/>
    </g>
    <g text-rendering="geometricPrecision" stroke-miterlimit="1.45" shape-rendering="geometricPrecision" transform="matrix(1,0,0,1,-195,-185)" stroke-linecap="butt">
      <path fill="none" d="M480 333.1174 L480 359.9925" clip-path="url(#clipPath2)"/>
      <path fill="none" d="M480 399.989 L480 411.25 L480 411.25 L480 429.9817" clip-path="url(#clipPath2)"/>
      <path fill="none" d="M480 469.9951 L480 500.0273" clip-path="url(#clipPath2)"/>
      <path fill="none" d="M480 539.9951 L480 563.588" clip-path="url(#clipPath2)"/>
      <path fill="none" d="M480 632.3967 L480 654.4285" clip-path="url(#clipPath2)"/>
      <path d="M480 662.4285 L485 650.4285 L480 653.4285 L475 650.4285 Z" clip-path="url(#clipPath2)" stroke="none"/>
      <text x="449.2818" y="651.0746" clip-path="url(#clipPath2)" font-family="sans-serif" stroke="none" font-weight="bold" xml:space="preserve">Нет</text>
      <text x="493.0363" y="746.6028" clip-path="url(#clipPath2)" font-family="sans-serif" stroke="none" font-weight="bold" xml:space="preserve">Нет</text>
      <text x="494.0363" y="829.6028" clip-path="url(#clipPath2)" font-family="sans-serif" stroke="none" font-weight="bold" xml:space="preserve">Нет</text>
      <text x="492.0363" y="920.6028" clip-path="url(#clipPath2)" font-family="sans-serif" stroke="none" font-weight="bold" xml:space="preserve">Нет</text>
      <text x="243.0363" y="950.6028" clip-path="url(#clipPath2)" font-family="sans-serif" stroke="none" font-weight="bold" xml:space="preserve">Нет</text>
      <text x="244.0363" y="1110.6028" clip-path="url(#clipPath2)" font-family="sans-serif" stroke="none" font-weight="bold" xml:space="preserve">Нет</text>
      <text x="339.423" y="863.97" clip-path="url(#clipPath2)" font-family="sans-serif" stroke="none" font-weight="bold" xml:space="preserve">Нет</text>
      <path fill="none" d="M579.8328 696.8 L750 696.8 L750 722.024" clip-path="url(#clipPath2)"/>
      <path d="M750 730.024 L755 718.024 L750 721.024 L745 718.024 Z" clip-path="url(#clipPath2)" stroke="none"/>
      <path fill="none" d="M750 769.9951 L750 800.0273" clip-path="url(#clipPath2)"/>
      <path fill="none" d="M480 731.2094 L480 746.0323" clip-path="url(#clipPath2)"/>
      <path d="M480 754.0323 L485 742.0323 L480 745.0323 L475 742.0323 Z" clip-path="url(#clipPath2)" stroke="none"/>
      <path fill="none" d="M421.7358 780 L330 780 L330 786.0234" clip-path="url(#clipPath2)"/>
      <path d="M330 794.0234 L335 782.0234 L330 785.0234 L325 782.0234 Z" clip-path="url(#clipPath2)" stroke="none"/>
      <path fill="none" d="M330 845.9854 L330 867.9893" clip-path="url(#clipPath2)"/>
      <path d="M330 875.9893 L335 863.9893 L330 866.9893 L325 863.9893 Z" clip-path="url(#clipPath2)" stroke="none"/>
      <path fill="none" d="M330 928.0137 L330 950.0347" clip-path="url(#clipPath2)"/>
      <path d="M330 958.0347 L335 946.0347 L330 949.0347 L325 946.0347 Z" clip-path="url(#clipPath2)" stroke="none"/>
      <path fill="none" d="M254.2822 902 L240 902 L240 1020 L330 1020 L330 1020.002" clip-path="url(#clipPath2)"/>
      <path d="M330 1028.002 L335 1016.002 L330 1019.002 L325 1016.002 Z" clip-path="url(#clipPath2)" stroke="none"/>
      <path fill="none" d="M330 997.9791 L330 1006.2968 L330.3353 1006.2968 L330.3353 1028.1549" clip-path="url(#clipPath2)"/>
      <path fill="none" d="M330 1080.0137 L330 1102.0348" clip-path="url(#clipPath2)"/>
      <path d="M330 1110.0348 L335 1098.0348 L330 1101.0348 L325 1098.0348 Z" clip-path="url(#clipPath2)" stroke="none"/>
      <path fill="none" d="M267.2021 1054 L240 1054 L240 1170 L330 1170 L330 1171.9902" clip-path="url(#clipPath2)"/>
      <path d="M330 1179.9902 L335 1167.9902 L330 1170.9902 L325 1167.9902 Z" clip-path="url(#clipPath2)" stroke="none"/>
      <path fill="none" d="M330 1149.9951 L330 1180.0273" clip-path="url(#clipPath2)"/>
      <path fill="none" d="M330 1219.9951 L330 1250.0273" clip-path="url(#clipPath2)"/>
      <path fill="none" d="M330 1289.9951 L330 1320.0273" clip-path="url(#clipPath2)"/>
      <path fill="none" d="M330 1359.9951 L330 1390.0273" clip-path="url(#clipPath2)"/>
      <path fill="none" d="M480 806.0098 L480 837.997" clip-path="url(#clipPath2)"/>
      <path d="M480 845.997 L485 833.997 L480 836.997 L475 833.997 Z" clip-path="url(#clipPath2)" stroke="none"/>
      <path fill="none" d="M535.2393 872 L660 872 L660 932.0195" clip-path="url(#clipPath2)"/>
      <path d="M660 940.0195 L665 928.0195 L660 931.0195 L655 928.0195 Z" clip-path="url(#clipPath2)" stroke="none"/>
      <path fill="none" d="M480 897.9961 L480 931.988" clip-path="url(#clipPath2)"/>
      <path d="M480 939.988 L485 927.988 L480 930.988 L475 927.988 Z" clip-path="url(#clipPath2)" stroke="none"/>
      <path fill="none" d="M480 979.9951 L480 1010.0273" clip-path="url(#clipPath2)"/>
      <path fill="none" d="M480 1049.9951 L480 1080.0273" clip-path="url(#clipPath2)"/>
      <path fill="none" d="M480 1119.9738 L480 1464.993" clip-path="url(#clipPath2)"/>
      <path fill="none" d="M330 1430.0098 L330 1440 L480 1440 L480 1464.9902" clip-path="url(#clipPath2)"/>
      <path fill="none" d="M579.8328 598 L870 598 L870 1440 L480 1440 L480 1456.9902" clip-path="url(#clipPath2)"/>
      <path d="M480 1464.9902 L485 1452.9902 L480 1455.9902 L475 1452.9902 Z" clip-path="url(#clipPath2)" stroke="none"/>
      <text x="691.2788" y="589.0746" clip-path="url(#clipPath2)" font-family="sans-serif" stroke="none" font-weight="bold" xml:space="preserve">Да</text>
      <text x="655.2788" y="687.0746" clip-path="url(#clipPath2)" font-family="sans-serif" stroke="none" font-weight="bold" xml:space="preserve">Да</text>
      <text x="367.2788" y="771.0746" clip-path="url(#clipPath2)" font-family="sans-serif" stroke="none" font-weight="bold" xml:space="preserve">Да</text>
      <text x="584.2788" y="863.3246" clip-path="url(#clipPath2)" font-family="sans-serif" stroke="none" font-weight="bold" xml:space="preserve">Да</text>
      <text x="340.5288" y="945.3246" clip-path="url(#clipPath2)" font-family="sans-serif" stroke="none" font-weight="bold" xml:space="preserve">Да</text>
      <text x="342.7834" y="1098.4153" clip-path="url(#clipPath2)" font-family="sans-serif" stroke="none" font-weight="bold" xml:space="preserve">Да</text>
      <text x="223.4201" y="814.97" clip-path="url(#clipPath2)" font-family="sans-serif" stroke="none" font-weight="bold" xml:space="preserve">Да</text>
      <path fill="none" d="M750 840.0183 L750 1440 L480 1440 L480 1464.9902" clip-path="url(#clipPath2)"/>
      <path fill="none" d="M660 980.0098 L660 1440 L480 1440 L480 1464.9902" clip-path="url(#clipPath2)"/>
      <path fill="none" d="M254.2676 820 L210 820 L210 1440 L480 1440 L480 1456.9902" clip-path="url(#clipPath2)"/>
      <path d="M480 1464.9902 L485 1452.9902 L480 1455.9902 L475 1452.9902 Z" clip-path="url(#clipPath2)" stroke="none"/>
      <path fill="none" d="M480 1504.9951 L480 1520 L480 1520 L480 1535.0049" clip-path="url(#clipPath2)"/>
    </g>
  </g>
</svg>
